# Blender 5.2.0 LTS
# www.blender.org
o Cube
v -1.000000 -1.000000 1.000000
v -1.000000 1.000000 1.000000
v -1.000000 -1.000000 -1.000000
v -1.000000 1.000000 -1.000000
v 1.000000 -1.000000 1.000000
v 1.000000 1.000000 1.000000
v 1.000000 -1.000000 -1.000000
v 1.000000 1.000000 -1.000000
v -0.379015 1.662681 0.379015
v -0.379015 1.662681 -0.379015
v 0.379015 1.662681 -0.379015
v 0.379015 1.662681 0.379015
v -0.379015 4.028853 0.379015
v -0.379015 4.028853 -0.379015
v 0.379015 4.028853 -0.379015
v 0.379015 4.028853 0.379015
v 0.379015 2.845767 -0.379015
v 0.379015 2.845767 0.379015
v -0.379015 2.845767 0.379015
v -0.379015 2.845767 -0.379015
v 0.379015 3.437310 -0.379015
v -0.379015 3.437310 0.379015
v 0.379015 3.437310 0.379015
v -0.379015 3.437310 -0.379015
v 0.379015 3.437310 3.474983
v 0.379015 2.845767 3.474983
v -0.379015 2.845767 3.474983
v -0.379015 3.437310 3.474983
v 0.379015 2.845767 1.926999
v -0.379015 2.845767 1.926999
v 0.379015 3.437310 1.926999
v -0.379015 3.437310 1.926999
v 0.379015 2.845767 2.700991
v 0.379015 3.437310 2.700991
v -0.379015 3.437310 2.700991
v -0.379015 2.845767 2.700991
v -0.140470 2.182097 2.457423
v -0.140470 2.182097 2.170567
v 0.140471 2.182097 2.170567
v 0.140471 2.182097 2.457423
s 0
f 2 3 1
f 4 7 3
f 8 5 7
f 6 1 5
f 7 1 3
f 6 9 2
f 23 15 16
f 4 11 8
f 8 12 6
f 2 10 4
f 14 16 15
f 24 13 14
f 23 13 22
f 24 15 21
f 10 17 11
f 12 19 9
f 10 19 20
f 12 17 18
f 20 21 17
f 33 27 36
f 20 22 24
f 18 21 23
f 26 28 27
f 34 26 33
f 35 25 34
f 36 28 35
f 19 32 22
f 22 31 23
f 23 29 18
f 18 30 19
f 30 35 32
f 32 34 31
f 31 33 29
f 29 38 30
f 39 37 38
f 30 37 36
f 33 39 29
f 33 37 40
f 2 4 3
f 4 8 7
f 8 6 5
f 6 2 1
f 7 5 1
f 6 12 9
f 23 21 15
f 4 10 11
f 8 11 12
f 2 9 10
f 14 13 16
f 24 22 13
f 23 16 13
f 24 14 15
f 10 20 17
f 12 18 19
f 10 9 19
f 12 11 17
f 20 24 21
f 33 26 27
f 20 19 22
f 18 17 21
f 26 25 28
f 34 25 26
f 35 28 25
f 36 27 28
f 19 30 32
f 22 32 31
f 23 31 29
f 18 29 30
f 30 36 35
f 32 35 34
f 31 34 33
f 29 39 38
f 39 40 37
f 30 38 37
f 33 40 39
f 33 36 37
