# Blender 5.2.0 LTS
# www.blender.org
o Sphere
v 0.000000 1.000000 0.000000
v 0.000000 0.831470 -0.555570
v 0.000000 0.555570 -0.831470
v 0.000000 0.195090 -0.980785
v 0.000000 0.000000 -1.000000
v 0.000000 -0.195090 -0.980785
v 0.000000 -0.555570 -0.831470
v 0.000000 -1.000000 0.000000
v 0.038060 0.980785 -0.191342
v 0.074658 0.923880 -0.375330
v 0.108386 0.831470 -0.544895
v 0.137950 0.707107 -0.693520
v 0.162212 0.555570 -0.815493
v 0.180240 0.382683 -0.906127
v 0.191342 0.195090 -0.961940
v 0.195090 0.000000 -0.980785
v 0.191342 -0.195090 -0.961940
v 0.180240 -0.382683 -0.906127
v 0.162212 -0.555570 -0.815493
v 0.137950 -0.707107 -0.693520
v 0.108386 -0.831470 -0.544895
v 0.074658 -0.923880 -0.375330
v 0.038060 -0.980785 -0.191342
v 0.074658 0.980785 -0.180240
v 0.146447 0.923880 -0.353553
v 0.212608 0.831470 -0.513280
v 0.270598 0.707107 -0.653281
v 0.318190 0.555570 -0.768178
v 0.353553 0.382683 -0.853553
v 0.375330 0.195090 -0.906127
v 0.382683 0.000000 -0.923879
v 0.375330 -0.195090 -0.906127
v 0.353553 -0.382683 -0.853553
v 0.318190 -0.555570 -0.768178
v 0.270598 -0.707107 -0.653281
v 0.212608 -0.831470 -0.513280
v 0.146447 -0.923880 -0.353553
v 0.074658 -0.980785 -0.180240
v 0.108386 0.980785 -0.162212
v 0.212608 0.923880 -0.318190
v 0.308658 0.831470 -0.461940
v 0.392847 0.707107 -0.587938
v 0.461940 0.555570 -0.691342
v 0.513280 0.382683 -0.768178
v 0.544895 0.195090 -0.815493
v 0.555570 0.000000 -0.831469
v 0.544895 -0.195090 -0.815493
v 0.513280 -0.382683 -0.768178
v 0.461940 -0.555570 -0.691342
v 0.392847 -0.707107 -0.587938
v 0.308658 -0.831470 -0.461940
v 0.212608 -0.923880 -0.318190
v 0.108386 -0.980785 -0.162212
v 0.137950 0.980785 -0.137950
v 0.270598 0.923880 -0.270598
v 0.392847 0.831470 -0.392847
v 0.500000 0.707107 -0.500000
v 0.587938 0.555570 -0.587938
v 0.653281 0.382683 -0.653281
v 0.693520 0.195090 -0.693520
v 0.707107 0.000000 -0.707107
v 0.693520 -0.195090 -0.693520
v 0.653281 -0.382683 -0.653281
v 0.587938 -0.555570 -0.587938
v 0.500000 -0.707107 -0.500000
v 0.392847 -0.831470 -0.392847
v 0.270598 -0.923880 -0.270598
v 0.137950 -0.980785 -0.137950
v 0.162212 0.980785 -0.108386
v 0.318190 0.923880 -0.212608
v 0.461940 0.831470 -0.308658
v 0.587938 0.707107 -0.392847
v 0.691342 0.555570 -0.461940
v 0.768178 0.382683 -0.513280
v 0.815493 0.195090 -0.544895
v 0.831470 0.000000 -0.555570
v 0.815493 -0.195090 -0.544895
v 0.768178 -0.382683 -0.513280
v 0.691342 -0.555570 -0.461940
v 0.587938 -0.707107 -0.392847
v 0.461940 -0.831470 -0.308658
v 0.318190 -0.923880 -0.212608
v 0.162212 -0.980785 -0.108386
v 0.180240 0.980785 -0.074658
v 0.353553 0.923880 -0.146447
v 0.513280 0.831470 -0.212607
v 0.653281 0.707107 -0.270598
v 0.768178 0.555570 -0.318190
v 0.853553 0.382683 -0.353553
v 0.906127 0.195090 -0.375330
v 0.923879 0.000000 -0.382683
v 0.906127 -0.195090 -0.375330
v 0.853553 -0.382683 -0.353553
v 0.768178 -0.555570 -0.318190
v 0.653281 -0.707107 -0.270598
v 0.513280 -0.831470 -0.212607
v 0.353553 -0.923880 -0.146447
v 0.180240 -0.980785 -0.074658
v 0.191342 0.980785 -0.038060
v 0.375330 0.923880 -0.074658
v 0.544895 0.831470 -0.108386
v 0.693520 0.707107 -0.137950
v 0.815493 0.555570 -0.162212
v 0.906127 0.382683 -0.180240
v 0.961940 0.195090 -0.191342
v 0.980785 0.000000 -0.195090
v 0.961940 -0.195090 -0.191342
v 0.906127 -0.382683 -0.180240
v 0.815493 -0.555570 -0.162212
v 0.693520 -0.707107 -0.137950
v 0.544895 -0.831470 -0.108386
v 0.375330 -0.923880 -0.074658
v 0.191342 -0.980785 -0.038060
v 0.195090 0.980785 0.000000
v 0.382683 0.923880 0.000000
v 0.555570 0.831470 0.000000
v 0.707107 0.707107 -0.000000
v 0.831469 0.555570 0.000000
v 0.923879 0.382683 -0.000000
v 0.980785 0.195090 0.000000
v 1.000000 0.000000 0.000000
v 0.980785 -0.195090 0.000000
v 0.923879 -0.382683 -0.000000
v 0.831469 -0.555570 0.000000
v 0.707107 -0.707107 -0.000000
v 0.555570 -0.831470 0.000000
v 0.382683 -0.923880 0.000000
v 0.195090 -0.980785 0.000000
v 0.191342 0.980785 0.038060
v 0.375330 0.923880 0.074658
v 0.544895 0.831470 0.108386
v 0.693520 0.707107 0.137950
v 0.815493 0.555570 0.162212
v 0.906127 0.382683 0.180240
v 0.961940 0.195090 0.191342
v 0.980785 0.000000 0.195090
v 0.961940 -0.195090 0.191342
v 0.906127 -0.382683 0.180240
v 0.815493 -0.555570 0.162212
v 0.693520 -0.707107 0.137950
v 0.544895 -0.831470 0.108386
v 0.375330 -0.923880 0.074658
v 0.191342 -0.980785 0.038060
v 0.180240 0.980785 0.074658
v 0.353553 0.923880 0.146447
v 0.513280 0.831470 0.212608
v 0.653281 0.707107 0.270598
v 0.768178 0.555570 0.318190
v 0.853553 0.382683 0.353553
v 0.906127 0.195090 0.375330
v 0.923879 0.000000 0.382683
v 0.906127 -0.195090 0.375330
v 0.853553 -0.382683 0.353553
v 0.768178 -0.555570 0.318190
v 0.653281 -0.707107 0.270598
v 0.513280 -0.831470 0.212608
v 0.353553 -0.923880 0.146447
v 0.180240 -0.980785 0.074658
v 0.162212 0.980785 0.108386
v 0.318190 0.923880 0.212608
v 0.461940 0.831470 0.308658
v 0.587938 0.707107 0.392847
v 0.691341 0.555570 0.461940
v 0.768178 0.382683 0.513280
v 0.815493 0.195090 0.544895
v 0.831469 0.000000 0.555570
v 0.815493 -0.195090 0.544895
v 0.768178 -0.382683 0.513280
v 0.691341 -0.555570 0.461940
v 0.587938 -0.707107 0.392847
v 0.461940 -0.831470 0.308658
v 0.318190 -0.923880 0.212608
v 0.162212 -0.980785 0.108386
v 0.137950 0.980785 0.137950
v 0.270598 0.923880 0.270598
v 0.392847 0.831470 0.392847
v 0.500000 0.707107 0.500000
v 0.587938 0.555570 0.587938
v 0.653281 0.382683 0.653281
v 0.693520 0.195090 0.693520
v 0.707106 0.000000 0.707107
v 0.693520 -0.195090 0.693520
v 0.653281 -0.382683 0.653281
v 0.587938 -0.555570 0.587938
v 0.500000 -0.707107 0.500000
v 0.392847 -0.831470 0.392847
v 0.270598 -0.923880 0.270598
v 0.137950 -0.980785 0.137950
v 0.108386 0.980785 0.162212
v 0.212607 0.923880 0.318190
v 0.308658 0.831470 0.461940
v 0.392847 0.707107 0.587938
v 0.461940 0.555570 0.691342
v 0.513280 0.382683 0.768178
v 0.544895 0.195090 0.815493
v 0.555570 0.000000 0.831469
v 0.544895 -0.195090 0.815493
v 0.513280 -0.382683 0.768178
v 0.461940 -0.555570 0.691342
v 0.392847 -0.707107 0.587938
v 0.308658 -0.831470 0.461940
v 0.212607 -0.923880 0.318190
v 0.108386 -0.980785 0.162212
v 0.074658 0.980785 0.180240
v 0.146447 0.923880 0.353553
v 0.212607 0.831470 0.513280
v 0.270598 0.707107 0.653281
v 0.318189 0.555570 0.768178
v 0.353553 0.382683 0.853553
v 0.375330 0.195090 0.906127
v 0.382683 0.000000 0.923879
v 0.375330 -0.195090 0.906127
v 0.353553 -0.382683 0.853553
v 0.318189 -0.555570 0.768178
v 0.270598 -0.707107 0.653281
v 0.212607 -0.831470 0.513280
v 0.146447 -0.923880 0.353553
v 0.074658 -0.980785 0.180240
v 0.038060 0.980785 0.191342
v 0.074658 0.923880 0.375330
v 0.108386 0.831470 0.544895
v 0.137950 0.707107 0.693520
v 0.162212 0.555570 0.815493
v 0.180240 0.382683 0.906127
v 0.191342 0.195090 0.961939
v 0.195090 0.000000 0.980785
v 0.191342 -0.195090 0.961939
v 0.180240 -0.382683 0.906127
v 0.162212 -0.555570 0.815493
v 0.137950 -0.707107 0.693520
v 0.108386 -0.831470 0.544895
v 0.074658 -0.923880 0.375330
v 0.038060 -0.980785 0.191342
v -0.000000 0.980785 0.195090
v -0.000000 0.923880 0.382683
v -0.000000 0.831470 0.555570
v -0.000000 0.707107 0.707107
v -0.000000 0.555570 0.831469
v 0.000000 0.382683 0.923879
v -0.000000 0.195090 0.980785
v -0.000000 0.000000 0.999999
v -0.000000 -0.195090 0.980785
v 0.000000 -0.382683 0.923879
v -0.000000 -0.555570 0.831469
v -0.000000 -0.707107 0.707107
v -0.000000 -0.831470 0.555570
v -0.000000 -0.923880 0.382683
v -0.000000 -0.980785 0.195090
v -0.038060 0.980785 0.191342
v -0.074658 0.923880 0.375330
v -0.108386 0.831470 0.544895
v -0.137950 0.707107 0.693520
v -0.162212 0.555570 0.815493
v -0.180240 0.382683 0.906127
v -0.191342 0.195090 0.961939
v -0.195091 0.000000 0.980785
v -0.191342 -0.195090 0.961939
v -0.180240 -0.382683 0.906127
v -0.162212 -0.555570 0.815493
v -0.137950 -0.707107 0.693520
v -0.108386 -0.831470 0.544895
v -0.074658 -0.923880 0.375330
v -0.038060 -0.980785 0.191342
v -0.074658 0.980785 0.180240
v -0.146447 0.923880 0.353553
v -0.212608 0.831470 0.513280
v -0.270598 0.707107 0.653281
v -0.318190 0.555570 0.768177
v -0.353553 0.382683 0.853553
v -0.375330 0.195090 0.906127
v -0.382683 0.000000 0.923879
v -0.375330 -0.195090 0.906127
v -0.353553 -0.382683 0.853553
v -0.318190 -0.555570 0.768177
v -0.270598 -0.707107 0.653281
v -0.212608 -0.831470 0.513280
v -0.146447 -0.923880 0.353553
v -0.074658 -0.980785 0.180240
v -0.108386 0.980785 0.162212
v -0.212608 0.923880 0.318190
v -0.308658 0.831470 0.461939
v -0.392847 0.707107 0.587938
v -0.461940 0.555570 0.691341
v -0.513280 0.382683 0.768178
v -0.544895 0.195090 0.815493
v -0.555570 0.000000 0.831469
v -0.544895 -0.195090 0.815493
v -0.513280 -0.382683 0.768178
v -0.461940 -0.555570 0.691341
v -0.392847 -0.707107 0.587938
v -0.308658 -0.831470 0.461939
v -0.212608 -0.923880 0.318190
v -0.108386 -0.980785 0.162212
v -0.137950 0.980785 0.137950
v -0.270598 0.923880 0.270598
v -0.392847 0.831470 0.392847
v -0.500000 0.707107 0.500000
v -0.587938 0.555570 0.587937
v -0.653281 0.382683 0.653281
v -0.693520 0.195090 0.693520
v -0.707106 0.000000 0.707106
v -0.693520 -0.195090 0.693520
v -0.653281 -0.382683 0.653281
v -0.587938 -0.555570 0.587937
v -0.500000 -0.707107 0.500000
v -0.392847 -0.831470 0.392847
v -0.270598 -0.923880 0.270598
v -0.137950 -0.980785 0.137950
v -0.162212 0.980785 0.108386
v -0.318190 0.923880 0.212607
v -0.461940 0.831470 0.308658
v -0.587938 0.707107 0.392847
v -0.691341 0.555570 0.461939
v -0.768177 0.382683 0.513280
v -0.815493 0.195090 0.544895
v -0.831469 0.000000 0.555569
v -0.815493 -0.195090 0.544895
v -0.768177 -0.382683 0.513280
v -0.691341 -0.555570 0.461939
v -0.587938 -0.707107 0.392847
v -0.461940 -0.831470 0.308658
v -0.318190 -0.923880 0.212607
v -0.162212 -0.980785 0.108386
v -0.180240 0.980785 0.074658
v -0.353553 0.923880 0.146447
v -0.513280 0.831470 0.212607
v -0.653281 0.707107 0.270598
v -0.768177 0.555570 0.318189
v -0.853553 0.382683 0.353553
v -0.906127 0.195090 0.375330
v -0.923879 0.000000 0.382683
v -0.906127 -0.195090 0.375330
v -0.853553 -0.382683 0.353553
v -0.768177 -0.555570 0.318189
v -0.653281 -0.707107 0.270598
v -0.513280 -0.831470 0.212607
v -0.353553 -0.923880 0.146447
v -0.180240 -0.980785 0.074658
v -0.191342 0.980785 0.038060
v -0.375330 0.923880 0.074658
v -0.544895 0.831470 0.108386
v -0.693520 0.707107 0.137950
v -0.815493 0.555570 0.162211
v -0.906127 0.382683 0.180240
v -0.961939 0.195090 0.191341
v -0.980784 0.000000 0.195090
v -0.961939 -0.195090 0.191341
v -0.906127 -0.382683 0.180240
v -0.815493 -0.555570 0.162211
v -0.693520 -0.707107 0.137950
v -0.544895 -0.831470 0.108386
v -0.375330 -0.923880 0.074658
v -0.191342 -0.980785 0.038060
v -0.195090 0.980785 -0.000000
v -0.382683 0.923880 -0.000000
v -0.555570 0.831470 -0.000000
v -0.707107 0.707107 -0.000000
v -0.831469 0.555570 -0.000000
v -0.923879 0.382683 -0.000000
v -0.980785 0.195090 -0.000000
v -0.999999 0.000000 -0.000000
v -0.980785 -0.195090 -0.000000
v -0.923879 -0.382683 -0.000000
v -0.831469 -0.555570 -0.000000
v -0.707107 -0.707107 -0.000000
v -0.555570 -0.831470 -0.000000
v -0.382683 -0.923880 -0.000000
v -0.195090 -0.980785 -0.000000
v -0.191342 0.980785 -0.038060
v -0.375330 0.923880 -0.074658
v -0.544895 0.831470 -0.108386
v -0.693520 0.707107 -0.137950
v -0.815493 0.555570 -0.162212
v -0.906127 0.382683 -0.180240
v -0.961939 0.195090 -0.191342
v -0.980784 0.000000 -0.195091
v -0.961939 -0.195090 -0.191342
v -0.906127 -0.382683 -0.180240
v -0.815493 -0.555570 -0.162212
v -0.693520 -0.707107 -0.137950
v -0.544895 -0.831470 -0.108386
v -0.375330 -0.923880 -0.074658
v -0.191342 -0.980785 -0.038060
v -0.180240 0.980785 -0.074658
v -0.353553 0.923880 -0.146447
v -0.513279 0.831470 -0.212607
v -0.653281 0.707107 -0.270598
v -0.768177 0.555570 -0.318190
v -0.853553 0.382683 -0.353553
v -0.906127 0.195090 -0.375330
v -0.923878 0.000000 -0.382683
v -0.906127 -0.195090 -0.375330
v -0.853553 -0.382683 -0.353553
v -0.768177 -0.555570 -0.318190
v -0.653281 -0.707107 -0.270598
v -0.513279 -0.831470 -0.212607
v -0.353553 -0.923880 -0.146447
v -0.180240 -0.980785 -0.074658
v -0.162212 0.980785 -0.108386
v -0.318189 0.923880 -0.212607
v -0.461939 0.831470 -0.308658
v -0.587938 0.707107 -0.392847
v -0.691341 0.555570 -0.461940
v -0.768177 0.382683 -0.513280
v -0.815493 0.195090 -0.544895
v -0.831468 0.000000 -0.555570
v -0.815493 -0.195090 -0.544895
v -0.768177 -0.382683 -0.513280
v -0.691341 -0.555570 -0.461940
v -0.587938 -0.707107 -0.392847
v -0.461939 -0.831470 -0.308658
v -0.318189 -0.923880 -0.212607
v -0.162212 -0.980785 -0.108386
v -0.137950 0.980785 -0.137950
v -0.270598 0.923880 -0.270598
v -0.392847 0.831470 -0.392847
v -0.500000 0.707107 -0.500000
v -0.587937 0.555570 -0.587938
v -0.653281 0.382683 -0.653281
v -0.693519 0.195090 -0.693520
v -0.707106 0.000000 -0.707106
v -0.693519 -0.195090 -0.693520
v -0.653281 -0.382683 -0.653281
v -0.587937 -0.555570 -0.587938
v -0.500000 -0.707107 -0.500000
v -0.392847 -0.831470 -0.392847
v -0.270598 -0.923880 -0.270598
v -0.137950 -0.980785 -0.137950
v -0.108386 0.980785 -0.162212
v -0.212607 0.923880 -0.318190
v -0.308658 0.831470 -0.461939
v -0.392847 0.707107 -0.587938
v -0.461939 0.555570 -0.691341
v -0.513280 0.382683 -0.768177
v -0.544895 0.195090 -0.815493
v -0.555569 0.000000 -0.831469
v -0.544895 -0.195090 -0.815493
v -0.513280 -0.382683 -0.768177
v -0.461939 -0.555570 -0.691341
v -0.392847 -0.707107 -0.587938
v -0.308658 -0.831470 -0.461939
v -0.212607 -0.923880 -0.318190
v -0.108386 -0.980785 -0.162212
v -0.074658 0.980785 -0.180240
v -0.146446 0.923880 -0.353553
v -0.212607 0.831470 -0.513279
v -0.270598 0.707107 -0.653281
v -0.318189 0.555570 -0.768177
v -0.353553 0.382683 -0.853553
v -0.375330 0.195090 -0.906127
v -0.382683 0.000000 -0.923879
v -0.375330 -0.195090 -0.906127
v -0.353553 -0.382683 -0.853553
v -0.318189 -0.555570 -0.768177
v -0.270598 -0.707107 -0.653281
v -0.212607 -0.831470 -0.513279
v -0.146446 -0.923880 -0.353553
v -0.074658 -0.980785 -0.180240
v -0.038060 0.980785 -0.191342
v -0.074658 0.923880 -0.375330
v -0.108386 0.831470 -0.544895
v -0.137950 0.707107 -0.693520
v -0.162211 0.555570 -0.815493
v -0.180240 0.382683 -0.906127
v -0.191341 0.195090 -0.961939
v -0.195090 0.000000 -0.980784
v -0.191341 -0.195090 -0.961939
v -0.180240 -0.382683 -0.906127
v -0.162211 -0.555570 -0.815493
v -0.137950 -0.707107 -0.693520
v -0.108386 -0.831470 -0.544895
v -0.074658 -0.923880 -0.375330
v -0.038060 -0.980785 -0.191342
v 0.000000 0.980785 -0.195090
v 0.000000 0.923880 -0.382683
v 0.000000 0.707107 -0.707107
v 0.000000 0.382683 -0.923879
v 0.000000 -0.382683 -0.923879
v 0.000000 -0.707107 -0.707107
v 0.000000 -0.831470 -0.555570
v 0.000000 -0.923880 -0.382683
v 0.000000 -0.980785 -0.195090
s 0
f 474 1 9
f 8 482 23
f 5 17 6
f 475 9 10
f 6 18 478
f 2 10 11
f 478 19 7
f 476 11 12
f 7 20 479
f 3 12 13
f 479 21 480
f 477 13 14
f 480 22 481
f 4 14 15
f 481 23 482
f 4 16 5
f 15 29 30
f 22 38 23
f 15 31 16
f 9 1 24
f 8 23 38
f 16 32 17
f 9 25 10
f 17 33 18
f 10 26 11
f 18 34 19
f 11 27 12
f 19 35 20
f 12 28 13
f 21 35 36
f 13 29 14
f 22 36 37
f 34 48 49
f 26 42 27
f 35 49 50
f 27 43 28
f 36 50 51
f 28 44 29
f 36 52 37
f 29 45 30
f 37 53 38
f 30 46 31
f 24 1 39
f 8 38 53
f 32 46 47
f 24 40 25
f 32 48 33
f 25 41 26
f 52 68 53
f 46 60 61
f 39 1 54
f 8 53 68
f 46 62 47
f 39 55 40
f 47 63 48
f 40 56 41
f 49 63 64
f 41 57 42
f 49 65 50
f 42 58 43
f 50 66 51
f 43 59 44
f 51 67 52
f 45 59 60
f 64 80 65
f 58 72 73
f 65 81 66
f 58 74 59
f 67 81 82
f 60 74 75
f 67 83 68
f 61 75 76
f 54 1 69
f 8 68 83
f 61 77 62
f 54 70 55
f 62 78 63
f 55 71 56
f 64 78 79
f 56 72 57
f 69 1 84
f 8 83 98
f 76 92 77
f 69 85 70
f 77 93 78
f 70 86 71
f 79 93 94
f 71 87 72
f 79 95 80
f 73 87 88
f 80 96 81
f 73 89 74
f 81 97 82
f 75 89 90
f 83 97 98
f 76 90 91
f 88 102 103
f 96 110 111
f 88 104 89
f 97 111 112
f 90 104 105
f 97 113 98
f 91 105 106
f 84 1 99
f 8 98 113
f 91 107 92
f 85 99 100
f 92 108 93
f 85 101 86
f 94 108 109
f 86 102 87
f 94 110 95
f 106 122 107
f 100 114 115
f 107 123 108
f 100 116 101
f 109 123 124
f 101 117 102
f 109 125 110
f 103 117 118
f 111 125 126
f 103 119 104
f 111 127 112
f 105 119 120
f 112 128 113
f 106 120 121
f 99 1 114
f 8 113 128
f 126 140 141
f 118 134 119
f 126 142 127
f 120 134 135
f 127 143 128
f 121 135 136
f 114 1 129
f 8 128 143
f 121 137 122
f 114 130 115
f 122 138 123
f 115 131 116
f 124 138 139
f 116 132 117
f 124 140 125
f 118 132 133
f 129 145 130
f 137 153 138
f 131 145 146
f 139 153 154
f 131 147 132
f 139 155 140
f 133 147 148
f 141 155 156
f 133 149 134
f 141 157 142
f 135 149 150
f 143 157 158
f 136 150 151
f 129 1 144
f 8 143 158
f 136 152 137
f 148 164 149
f 156 172 157
f 150 164 165
f 157 173 158
f 151 165 166
f 144 1 159
f 8 158 173
f 151 167 152
f 144 160 145
f 152 168 153
f 146 160 161
f 154 168 169
f 146 162 147
f 154 170 155
f 148 162 163
f 156 170 171
f 167 183 168
f 160 176 161
f 169 183 184
f 161 177 162
f 169 185 170
f 163 177 178
f 170 186 171
f 163 179 164
f 172 186 187
f 165 179 180
f 173 187 188
f 166 180 181
f 159 1 174
f 8 173 188
f 166 182 167
f 159 175 160
f 186 202 187
f 180 194 195
f 187 203 188
f 181 195 196
f 174 1 189
f 8 188 203
f 181 197 182
f 175 189 190
f 182 198 183
f 176 190 191
f 184 198 199
f 176 192 177
f 184 200 185
f 178 192 193
f 186 200 201
f 178 194 179
f 199 213 214
f 191 207 192
f 199 215 200
f 193 207 208
f 201 215 216
f 193 209 194
f 201 217 202
f 195 209 210
f 202 218 203
f 196 210 211
f 189 1 204
f 8 203 218
f 196 212 197
f 189 205 190
f 197 213 198
f 190 206 191
f 217 233 218
f 211 225 226
f 204 1 219
f 8 218 233
f 211 227 212
f 204 220 205
f 212 228 213
f 205 221 206
f 214 228 229
f 206 222 207
f 214 230 215
f 208 222 223
f 216 230 231
f 208 224 209
f 216 232 217
f 210 224 225
f 221 237 222
f 229 245 230
f 223 237 238
f 231 245 246
f 223 239 224
f 231 247 232
f 225 239 240
f 233 247 248
f 226 240 241
f 219 1 234
f 8 233 248
f 226 242 227
f 219 235 220
f 227 243 228
f 221 235 236
f 229 243 244
f 241 255 256
f 234 1 249
f 8 248 263
f 241 257 242
f 234 250 235
f 242 258 243
f 235 251 236
f 244 258 259
f 236 252 237
f 244 260 245
f 238 252 253
f 246 260 261
f 238 254 239
f 246 262 247
f 240 254 255
f 247 263 248
f 259 275 260
f 253 267 268
f 261 275 276
f 253 269 254
f 261 277 262
f 255 269 270
f 262 278 263
f 256 270 271
f 249 1 264
f 8 263 278
f 256 272 257
f 250 264 265
f 257 273 258
f 250 266 251
f 259 273 274
f 251 267 252
f 264 1 279
f 8 278 293
f 271 287 272
f 265 279 280
f 272 288 273
f 265 281 266
f 274 288 289
f 266 282 267
f 274 290 275
f 268 282 283
f 276 290 291
f 268 284 269
f 276 292 277
f 270 284 285
f 278 292 293
f 271 285 286
f 283 297 298
f 291 305 306
f 283 299 284
f 291 307 292
f 285 299 300
f 293 307 308
f 286 300 301
f 279 1 294
f 8 293 308
f 286 302 287
f 279 295 280
f 287 303 288
f 280 296 281
f 289 303 304
f 281 297 282
f 289 305 290
f 301 317 302
f 294 310 295
f 302 318 303
f 295 311 296
f 304 318 319
f 296 312 297
f 304 320 305
f 298 312 313
f 306 320 321
f 298 314 299
f 306 322 307
f 300 314 315
f 307 323 308
f 301 315 316
f 294 1 309
f 8 308 323
f 321 335 336
f 313 329 314
f 321 337 322
f 315 329 330
f 322 338 323
f 316 330 331
f 309 1 324
f 8 323 338
f 316 332 317
f 309 325 310
f 317 333 318
f 310 326 311
f 319 333 334
f 311 327 312
f 319 335 320
f 312 328 313
f 332 348 333
f 325 341 326
f 334 348 349
f 326 342 327
f 334 350 335
f 328 342 343
f 336 350 351
f 328 344 329
f 336 352 337
f 330 344 345
f 337 353 338
f 331 345 346
f 324 1 339
f 8 338 353
f 331 347 332
f 324 340 325
f 351 367 352
f 345 359 360
f 352 368 353
f 346 360 361
f 339 1 354
f 8 353 368
f 346 362 347
f 339 355 340
f 347 363 348
f 341 355 356
f 349 363 364
f 341 357 342
f 349 365 350
f 343 357 358
f 351 365 366
f 343 359 344
f 356 370 371
f 364 378 379
f 356 372 357
f 364 380 365
f 358 372 373
f 366 380 381
f 358 374 359
f 366 382 367
f 360 374 375
f 367 383 368
f 361 375 376
f 354 1 369
f 8 368 383
f 361 377 362
f 354 370 355
f 362 378 363
f 375 389 390
f 382 398 383
f 376 390 391
f 369 1 384
f 8 383 398
f 376 392 377
f 369 385 370
f 377 393 378
f 371 385 386
f 379 393 394
f 371 387 372
f 379 395 380
f 373 387 388
f 381 395 396
f 373 389 374
f 381 397 382
f 394 408 409
f 386 402 387
f 394 410 395
f 388 402 403
f 396 410 411
f 388 404 389
f 397 411 412
f 390 404 405
f 397 413 398
f 391 405 406
f 384 1 399
f 8 398 413
f 391 407 392
f 385 399 400
f 392 408 393
f 385 401 386
f 412 428 413
f 406 420 421
f 399 1 414
f 8 413 428
f 406 422 407
f 399 415 400
f 407 423 408
f 401 415 416
f 409 423 424
f 401 417 402
f 409 425 410
f 403 417 418
f 411 425 426
f 403 419 404
f 411 427 412
f 405 419 420
f 416 432 417
f 424 440 425
f 418 432 433
f 426 440 441
f 418 434 419
f 426 442 427
f 420 434 435
f 427 443 428
f 421 435 436
f 414 1 429
f 8 428 443
f 421 437 422
f 414 430 415
f 422 438 423
f 416 430 431
f 424 438 439
f 436 450 451
f 429 1 444
f 8 443 458
f 436 452 437
f 430 444 445
f 437 453 438
f 430 446 431
f 439 453 454
f 431 447 432
f 439 455 440
f 433 447 448
f 441 455 456
f 433 449 434
f 441 457 442
f 435 449 450
f 442 458 443
f 454 470 455
f 448 462 463
f 456 470 471
f 448 464 449
f 456 472 457
f 450 464 465
f 458 472 473
f 451 465 466
f 444 1 459
f 8 458 473
f 451 467 452
f 444 460 445
f 452 468 453
f 446 460 461
f 454 468 469
f 446 462 447
f 8 473 482
f 466 6 467
f 460 474 475
f 467 478 468
f 461 475 2
f 468 7 469
f 462 2 476
f 469 479 470
f 463 476 3
f 471 479 480
f 464 3 477
f 471 481 472
f 465 477 4
f 472 482 473
f 466 4 5
f 459 1 474
f 5 16 17
f 475 474 9
f 6 17 18
f 2 475 10
f 478 18 19
f 476 2 11
f 7 19 20
f 3 476 12
f 479 20 21
f 477 3 13
f 480 21 22
f 4 477 14
f 481 22 23
f 4 15 16
f 15 14 29
f 22 37 38
f 15 30 31
f 16 31 32
f 9 24 25
f 17 32 33
f 10 25 26
f 18 33 34
f 11 26 27
f 19 34 35
f 12 27 28
f 21 20 35
f 13 28 29
f 22 21 36
f 34 33 48
f 26 41 42
f 35 34 49
f 27 42 43
f 36 35 50
f 28 43 44
f 36 51 52
f 29 44 45
f 37 52 53
f 30 45 46
f 32 31 46
f 24 39 40
f 32 47 48
f 25 40 41
f 52 67 68
f 46 45 60
f 46 61 62
f 39 54 55
f 47 62 63
f 40 55 56
f 49 48 63
f 41 56 57
f 49 64 65
f 42 57 58
f 50 65 66
f 43 58 59
f 51 66 67
f 45 44 59
f 64 79 80
f 58 57 72
f 65 80 81
f 58 73 74
f 67 66 81
f 60 59 74
f 67 82 83
f 61 60 75
f 61 76 77
f 54 69 70
f 62 77 78
f 55 70 71
f 64 63 78
f 56 71 72
f 76 91 92
f 69 84 85
f 77 92 93
f 70 85 86
f 79 78 93
f 71 86 87
f 79 94 95
f 73 72 87
f 80 95 96
f 73 88 89
f 81 96 97
f 75 74 89
f 83 82 97
f 76 75 90
f 88 87 102
f 96 95 110
f 88 103 104
f 97 96 111
f 90 89 104
f 97 112 113
f 91 90 105
f 91 106 107
f 85 84 99
f 92 107 108
f 85 100 101
f 94 93 108
f 86 101 102
f 94 109 110
f 106 121 122
f 100 99 114
f 107 122 123
f 100 115 116
f 109 108 123
f 101 116 117
f 109 124 125
f 103 102 117
f 111 110 125
f 103 118 119
f 111 126 127
f 105 104 119
f 112 127 128
f 106 105 120
f 126 125 140
f 118 133 134
f 126 141 142
f 120 119 134
f 127 142 143
f 121 120 135
f 121 136 137
f 114 129 130
f 122 137 138
f 115 130 131
f 124 123 138
f 116 131 132
f 124 139 140
f 118 117 132
f 129 144 145
f 137 152 153
f 131 130 145
f 139 138 153
f 131 146 147
f 139 154 155
f 133 132 147
f 141 140 155
f 133 148 149
f 141 156 157
f 135 134 149
f 143 142 157
f 136 135 150
f 136 151 152
f 148 163 164
f 156 171 172
f 150 149 164
f 157 172 173
f 151 150 165
f 151 166 167
f 144 159 160
f 152 167 168
f 146 145 160
f 154 153 168
f 146 161 162
f 154 169 170
f 148 147 162
f 156 155 170
f 167 182 183
f 160 175 176
f 169 168 183
f 161 176 177
f 169 184 185
f 163 162 177
f 170 185 186
f 163 178 179
f 172 171 186
f 165 164 179
f 173 172 187
f 166 165 180
f 166 181 182
f 159 174 175
f 186 201 202
f 180 179 194
f 187 202 203
f 181 180 195
f 181 196 197
f 175 174 189
f 182 197 198
f 176 175 190
f 184 183 198
f 176 191 192
f 184 199 200
f 178 177 192
f 186 185 200
f 178 193 194
f 199 198 213
f 191 206 207
f 199 214 215
f 193 192 207
f 201 200 215
f 193 208 209
f 201 216 217
f 195 194 209
f 202 217 218
f 196 195 210
f 196 211 212
f 189 204 205
f 197 212 213
f 190 205 206
f 217 232 233
f 211 210 225
f 211 226 227
f 204 219 220
f 212 227 228
f 205 220 221
f 214 213 228
f 206 221 222
f 214 229 230
f 208 207 222
f 216 215 230
f 208 223 224
f 216 231 232
f 210 209 224
f 221 236 237
f 229 244 245
f 223 222 237
f 231 230 245
f 223 238 239
f 231 246 247
f 225 224 239
f 233 232 247
f 226 225 240
f 226 241 242
f 219 234 235
f 227 242 243
f 221 220 235
f 229 228 243
f 241 240 255
f 241 256 257
f 234 249 250
f 242 257 258
f 235 250 251
f 244 243 258
f 236 251 252
f 244 259 260
f 238 237 252
f 246 245 260
f 238 253 254
f 246 261 262
f 240 239 254
f 247 262 263
f 259 274 275
f 253 252 267
f 261 260 275
f 253 268 269
f 261 276 277
f 255 254 269
f 262 277 278
f 256 255 270
f 256 271 272
f 250 249 264
f 257 272 273
f 250 265 266
f 259 258 273
f 251 266 267
f 271 286 287
f 265 264 279
f 272 287 288
f 265 280 281
f 274 273 288
f 266 281 282
f 274 289 290
f 268 267 282
f 276 275 290
f 268 283 284
f 276 291 292
f 270 269 284
f 278 277 292
f 271 270 285
f 283 282 297
f 291 290 305
f 283 298 299
f 291 306 307
f 285 284 299
f 293 292 307
f 286 285 300
f 286 301 302
f 279 294 295
f 287 302 303
f 280 295 296
f 289 288 303
f 281 296 297
f 289 304 305
f 301 316 317
f 294 309 310
f 302 317 318
f 295 310 311
f 304 303 318
f 296 311 312
f 304 319 320
f 298 297 312
f 306 305 320
f 298 313 314
f 306 321 322
f 300 299 314
f 307 322 323
f 301 300 315
f 321 320 335
f 313 328 329
f 321 336 337
f 315 314 329
f 322 337 338
f 316 315 330
f 316 331 332
f 309 324 325
f 317 332 333
f 310 325 326
f 319 318 333
f 311 326 327
f 319 334 335
f 312 327 328
f 332 347 348
f 325 340 341
f 334 333 348
f 326 341 342
f 334 349 350
f 328 327 342
f 336 335 350
f 328 343 344
f 336 351 352
f 330 329 344
f 337 352 353
f 331 330 345
f 331 346 347
f 324 339 340
f 351 366 367
f 345 344 359
f 352 367 368
f 346 345 360
f 346 361 362
f 339 354 355
f 347 362 363
f 341 340 355
f 349 348 363
f 341 356 357
f 349 364 365
f 343 342 357
f 351 350 365
f 343 358 359
f 356 355 370
f 364 363 378
f 356 371 372
f 364 379 380
f 358 357 372
f 366 365 380
f 358 373 374
f 366 381 382
f 360 359 374
f 367 382 383
f 361 360 375
f 361 376 377
f 354 369 370
f 362 377 378
f 375 374 389
f 382 397 398
f 376 375 390
f 376 391 392
f 369 384 385
f 377 392 393
f 371 370 385
f 379 378 393
f 371 386 387
f 379 394 395
f 373 372 387
f 381 380 395
f 373 388 389
f 381 396 397
f 394 393 408
f 386 401 402
f 394 409 410
f 388 387 402
f 396 395 410
f 388 403 404
f 397 396 411
f 390 389 404
f 397 412 413
f 391 390 405
f 391 406 407
f 385 384 399
f 392 407 408
f 385 400 401
f 412 427 428
f 406 405 420
f 406 421 422
f 399 414 415
f 407 422 423
f 401 400 415
f 409 408 423
f 401 416 417
f 409 424 425
f 403 402 417
f 411 410 425
f 403 418 419
f 411 426 427
f 405 404 419
f 416 431 432
f 424 439 440
f 418 417 432
f 426 425 440
f 418 433 434
f 426 441 442
f 420 419 434
f 427 442 443
f 421 420 435
f 421 436 437
f 414 429 430
f 422 437 438
f 416 415 430
f 424 423 438
f 436 435 450
f 436 451 452
f 430 429 444
f 437 452 453
f 430 445 446
f 439 438 453
f 431 446 447
f 439 454 455
f 433 432 447
f 441 440 455
f 433 448 449
f 441 456 457
f 435 434 449
f 442 457 458
f 454 469 470
f 448 447 462
f 456 455 470
f 448 463 464
f 456 471 472
f 450 449 464
f 458 457 472
f 451 450 465
f 451 466 467
f 444 459 460
f 452 467 468
f 446 445 460
f 454 453 468
f 446 461 462
f 466 5 6
f 460 459 474
f 467 6 478
f 461 460 475
f 468 478 7
f 462 461 2
f 469 7 479
f 463 462 476
f 471 470 479
f 464 463 3
f 471 480 481
f 465 464 477
f 472 481 482
f 466 465 4
